<?xml version="1.0" standalone="no"?>
<!DOCTYPE svg PUBLIC "-//W3C//DTD SVG 20010904//EN"
 "http://www.w3.org/TR/2001/REC-SVG-20010904/DTD/svg10.dtd">
<svg version="1.0" xmlns="http://www.w3.org/2000/svg"
 width="1180.000000pt" height="360.000000pt" viewBox="0 0 1180.000000 360.000000"
 preserveAspectRatio="xMidYMid meet">
<metadata>
Created by potrace 1.15, written by Peter Selinger 2001-2017
</metadata>
<g transform="translate(0.000000,360.000000) scale(0.100000,-0.100000)"
fill="#000000" stroke="none">
<path d="M0 1800 l0 -1800 900 0 c495 0 900 2 900 4 0 11 -125 49 -219 67 -97
17 -100 19 -36 14 83 -7 281 -51 312 -71 18 -11 162 -14 822 -14 535 0 809 4
828 11 18 7 29 7 31 0 2 -6 190 -10 539 -10 295 -1 534 2 531 5 -3 3 -28 9
-55 14 -42 8 -39 9 22 4 39 -3 93 -7 122 -10 29 -2 54 0 57 5 8 12 -106 21
-245 20 -131 -1 -206 9 -174 22 13 6 -4 8 -50 8 -38 0 -124 3 -190 5 -72 3
-110 2 -95 -4 43 -14 -8 -11 -75 5 -32 8 -137 17 -232 21 -95 4 -172 9 -169
11 2 2 57 4 122 4 74 0 112 4 103 10 -8 5 -21 9 -29 9 -8 0 -62 16 -120 35
-58 19 -89 33 -70 30 86 -14 179 -39 230 -63 47 -22 66 -25 152 -25 54 1 98
-3 98 -8 0 -5 14 -9 30 -9 35 0 40 17 8 23 -24 4 74 12 127 10 16 -1 33 4 37
10 6 9 8 9 8 0 0 -8 13 -13 30 -13 30 0 43 24 18 33 -7 2 -10 8 -5 12 4 5 13
2 20 -7 14 -17 94 -44 104 -35 3 4 -3 7 -15 7 -12 0 -22 4 -22 9 0 4 19 8 42
8 35 0 39 -2 25 -12 -27 -20 -20 -26 21 -19 39 8 64 30 57 52 -7 19 24 27 47
13 29 -18 70 -32 64 -22 -3 5 5 8 18 7 25 -1 29 -14 11 -29 -5 -4 1 -7 15 -6
49 4 81 -1 75 -11 -3 -5 -2 -10 4 -10 22 0 20 20 -3 26 -14 3 -30 12 -36 19
-9 11 1 13 49 12 33 -1 59 -6 58 -12 -1 -5 9 -11 22 -13 13 -2 21 0 17 6 -3 5
6 13 21 17 17 4 29 2 31 -4 2 -6 10 -11 18 -11 8 0 14 -9 14 -20 0 -15 7 -20
26 -20 32 0 111 -20 142 -36 22 -11 23 -13 5 -23 -17 -10 -16 -10 4 -11 38 0
35 17 -12 55 -25 21 -42 41 -40 46 5 7 -29 19 -135 47 -30 8 -32 11 -16 18 12
5 45 1 85 -10 97 -27 121 -30 121 -16 0 10 25 11 108 6 59 -4 123 -11 142 -16
33 -8 32 -8 -20 -10 l-55 -2 33 -14 c37 -16 43 -30 10 -20 -13 4 -48 10 -78
13 -30 3 -70 12 -89 19 -19 8 -36 12 -39 9 -3 -2 11 -12 31 -20 63 -26 36 -49
-29 -25 -45 17 -37 5 21 -33 52 -35 60 -37 172 -45 65 -5 125 -7 134 -5 9 3
20 0 23 -6 4 -7 0 -10 -11 -9 -10 0 -31 0 -48 -2 -26 -2 -25 -3 15 -11 28 -5
48 -5 54 1 13 13 101 13 149 -1 33 -9 86 -4 74 7 -2 2 -42 9 -88 14 -106 13
-191 31 -204 42 -12 11 121 1 178 -13 21 -6 76 -13 123 -17 66 -6 82 -5 70 4
-23 16 -21 48 2 39 9 -3 29 -9 45 -12 20 -4 27 -11 27 -29 0 -18 6 -24 23 -24
12 0 33 -3 47 -6 19 -4 22 -3 10 5 -11 7 30 9 140 5 l155 -5 -39 20 c-21 11
-54 23 -73 27 -38 7 -183 53 -169 54 5 0 3 7 -4 15 -11 13 -8 15 18 15 17 0
38 -8 48 -17 9 -9 58 -28 108 -40 50 -13 100 -30 111 -37 12 -8 59 -23 105
-34 84 -21 104 -21 1435 -20 743 1 1337 4 1320 8 -26 5 -22 7 28 14 32 4 61 5
65 2 3 -3 -7 -6 -21 -6 -15 0 -27 -4 -27 -10 0 -7 290 -10 853 -9 661 1 839 4
794 13 -32 6 -55 14 -51 19 11 10 83 9 124 -3 52 -15 201 -31 214 -22 6 4 49
6 96 5 l85 -2 -55 14 c-30 7 -79 17 -108 21 -31 4 -50 10 -45 15 6 6 57 1 124
-11 196 -35 339 -50 469 -49 69 1 116 3 105 6 -11 2 -37 11 -58 19 -20 8 -58
14 -83 14 -25 0 -55 5 -66 11 -11 6 -75 15 -142 20 -138 9 -275 26 -326 38
-58 15 2 13 110 -3 52 -8 165 -17 250 -21 85 -3 169 -9 185 -12 17 -3 26 -2
22 3 -9 9 -86 25 -217 46 -41 6 -78 15 -81 20 -8 12 -232 38 -242 28 -5 -4 10
-11 33 -15 23 -4 39 -9 37 -12 -8 -7 -126 20 -121 29 3 4 -2 5 -12 1 -14 -5
-163 40 -444 134 -41 14 -91 29 -110 33 -19 4 -73 20 -120 34 -47 15 -96 25
-110 23 -23 -3 -23 -4 8 -12 17 -4 32 -11 32 -16 0 -13 -17 -11 -51 6 -16 9
-34 13 -39 10 -11 -7 -47 10 -75 36 -12 10 -48 27 -80 38 -70 22 -42 28 31 6
27 -8 63 -12 79 -9 20 3 37 -1 50 -11 l20 -17 -20 7 c-13 4 -16 3 -10 -3 15
-14 75 -23 75 -12 0 6 -82 51 -182 100 -208 103 -212 108 -16 21 75 -34 140
-61 143 -61 4 0 -20 18 -54 41 -70 47 -81 59 -51 59 12 0 34 -13 48 -28 15
-16 59 -48 97 -72 39 -23 82 -51 97 -61 40 -28 45 -4 6 32 l-33 31 34 -18 c18
-11 42 -23 52 -29 11 -5 19 -13 19 -18 0 -12 59 -67 72 -67 7 0 6 5 -2 15 -18
21 -2 19 54 -10 27 -14 68 -25 90 -26 26 0 35 -3 24 -7 -15 -6 -14 -9 10 -19
61 -25 181 -62 237 -72 127 -23 232 -40 285 -46 30 -3 80 -13 110 -22 30 -9
62 -17 70 -18 8 -1 65 -11 125 -23 61 -11 139 -23 175 -27 36 -3 80 -8 98 -12
l32 -5 0 235 0 236 -27 4 -28 4 28 2 27 1 0 924 0 923 -62 38 c-34 21 -56 41
-49 43 7 2 21 -4 31 -13 16 -14 23 -15 34 -6 8 7 21 9 28 5 10 -5 10 -4 1 6
-10 11 -15 11 -29 -1 -15 -12 -17 -12 -12 1 3 9 16 14 32 13 l26 -2 0 555 0
554 -279 0 -278 0 -24 -24 c-13 -13 -34 -26 -46 -30 -13 -4 -23 -11 -23 -16 0
-4 -22 -22 -48 -38 -26 -16 -56 -37 -66 -47 -31 -31 -86 -65 -106 -65 -30 0
-69 -21 -75 -42 -4 -10 -11 -18 -16 -18 -5 0 -9 -7 -9 -15 0 -24 -103 -85
-145 -85 -20 0 -63 -9 -96 -20 -67 -23 -90 -20 -206 26 -67 26 -120 30 -235
14 -40 -5 -98 -12 -130 -15 -48 -5 -61 -12 -92 -43 -75 -79 -116 -130 -116
-145 0 -8 -7 -17 -15 -21 -8 -3 -15 -12 -15 -20 0 -9 -16 -19 -42 -26 -113
-30 -147 -42 -198 -72 -51 -31 -56 -38 -75 -95 -10 -34 -25 -65 -32 -67 -7 -3
-10 1 -6 10 5 14 3 14 -14 4 -23 -15 -63 -132 -63 -185 0 -26 -9 -45 -37 -76
-34 -38 -57 -89 -33 -74 5 3 10 1 10 -5 0 -7 -7 -9 -16 -6 -9 3 -18 6 -20 6
-3 0 -2 5 1 10 8 13 -5 13 -25 0 -13 -8 -13 -10 2 -10 14 0 16 -6 12 -30 -7
-33 5 -39 30 -15 8 8 27 15 43 15 40 0 113 24 123 40 6 10 12 11 22 3 17 -14
68 -5 75 14 3 8 10 10 17 5 22 -18 86 -21 122 -6 19 8 32 19 29 24 -9 14 9 12
23 -2 9 -9 15 -9 24 0 7 7 19 12 27 12 12 0 12 -3 -2 -17 -55 -59 -67 -78 -67
-109 0 -18 -9 -56 -20 -84 -11 -28 -20 -55 -20 -59 0 -14 128 4 144 20 6 5 20
9 33 9 13 0 23 3 23 8 0 4 5 14 10 22 9 13 13 11 30 -10 15 -19 22 -22 28 -12
7 11 12 11 25 -2 22 -22 54 -20 62 4 4 11 12 19 19 18 7 -2 27 12 46 30 23 24
40 32 56 29 12 -2 28 0 35 4 7 4 21 3 31 -2 14 -8 19 -5 24 16 4 15 12 24 22
23 10 -2 18 8 24 29 5 20 13 30 21 27 7 -2 29 2 49 11 20 8 43 12 51 9 9 -3
21 4 30 16 13 18 18 20 37 10 17 -9 25 -9 39 4 13 12 34 16 78 14 48 -2 65 1
82 16 12 11 23 17 26 14 5 -4 -17 -35 -69 -95 -27 -32 -59 -43 -70 -24 -4 5 4
7 16 4 19 -5 21 -3 10 8 -10 11 -24 9 -84 -11 -39 -14 -76 -30 -82 -36 -6 -6
-17 -9 -25 -6 -14 5 -13 -10 4 -50 5 -12 -2 -26 -19 -43 -17 -17 -29 -42 -32
-69 l-6 -42 -77 -13 c-88 -14 -103 -14 -191 -6 -61 6 -66 5 -89 -19 -27 -29
-10 -37 20 -10 16 14 23 15 48 4 16 -6 40 -11 53 -10 43 4 42 0 -3 -28 -24
-16 -61 -31 -81 -35 -20 -3 -59 -16 -85 -30 -46 -23 -48 -25 -51 -71 -2 -39 1
-51 19 -67 26 -23 33 -24 26 -5 -3 8 -1 31 4 50 7 26 15 36 30 36 13 0 23 8
26 21 4 16 11 19 27 14 11 -4 29 -6 39 -6 9 1 33 3 52 4 20 1 35 7 35 15 0 6
7 12 15 12 16 0 10 -30 -9 -42 -6 -4 -7 -10 -3 -14 4 -4 17 2 30 14 13 12 31
22 40 22 9 0 19 5 22 10 10 16 35 12 35 -5 0 -9 -10 -20 -22 -25 -19 -7 -20
-9 -5 -9 10 -1 27 4 38 9 24 14 45 -5 43 -37 -2 -31 19 -29 48 5 13 15 44 38
70 50 25 13 52 30 58 38 7 7 21 14 32 14 31 0 55 17 62 44 5 22 14 26 56 32
28 4 50 10 50 15 0 17 15 9 25 -13 12 -28 41 -35 63 -14 12 10 22 12 32 6 8
-5 26 -10 40 -11 23 -1 23 -2 -5 -9 -27 -7 -28 -8 -6 -9 41 -2 11 -20 -58 -37
-69 -16 -135 -46 -168 -77 -31 -28 -31 -80 -1 -101 25 -17 63 -22 53 -6 -3 5
-12 7 -20 3 -8 -3 -15 0 -15 6 0 6 10 11 22 11 12 0 30 8 40 17 18 16 18 15 4
-18 -10 -25 -21 -35 -41 -37 l-26 -3 25 -20 c13 -10 30 -19 38 -19 8 -1 7 -4
-5 -11 -9 -5 -21 -8 -26 -5 -14 9 -180 -43 -221 -69 -44 -28 -72 -63 -62 -79
4 -6 7 -15 7 -21 0 -5 8 -11 19 -13 10 -2 16 0 12 6 -4 6 2 8 15 5 11 -3 23
-12 26 -19 6 -17 34 -18 69 -2 22 10 28 10 32 0 6 -18 23 -14 20 5 -2 12 7 19
32 24 19 4 36 12 38 18 4 13 102 15 102 2 0 -5 10 -12 23 -14 12 -2 -15 -5
-60 -6 -79 -1 -82 -2 -103 -31 -12 -17 -28 -30 -37 -30 -16 0 -13 -22 4 -27 6
-2 24 8 41 22 30 25 32 25 56 10 18 -12 52 -17 116 -19 50 -2 93 0 95 4 2 3
-10 15 -28 25 -18 10 -37 26 -44 34 -10 14 -7 17 20 22 l32 6 -25 11 c-23 10
-22 11 20 13 l45 2 -35 7 c-19 4 -28 8 -20 9 64 9 74 9 65 3 -6 -4 -10 -14
-10 -22 0 -8 -8 -14 -17 -14 -10 1 -16 -2 -13 -6 3 -5 -4 -15 -16 -23 l-21
-15 21 -11 c17 -9 21 -9 21 2 0 7 11 20 26 27 21 12 30 12 57 0 18 -8 60 -14
93 -14 45 -1 60 -4 57 -14 -7 -16 -33 -21 -128 -24 -74 -3 -80 -5 -83 -25 -3
-18 -10 -23 -35 -24 -18 -1 -43 -5 -57 -9 -19 -6 -12 -8 32 -9 35 -1 58 3 60
11 3 8 37 13 99 15 l94 3 -40 -16 c-29 -11 -86 -17 -205 -20 -94 -3 -166 -9
-168 -14 -2 -6 -10 -10 -18 -10 -10 0 -11 6 -4 25 5 13 6 27 1 29 -12 8 -20
-4 -15 -19 3 -7 -8 -20 -28 -29 -20 -11 -34 -13 -36 -6 -5 15 -19 12 -19 -5 0
-10 10 -15 29 -15 15 0 28 4 28 9 0 5 17 5 41 0 22 -5 45 -6 51 -3 7 5 8 2 3
-6 -6 -10 -4 -12 8 -7 9 3 27 2 39 -3 16 -6 -9 -9 -82 -10 -89 0 -155 -6 -310
-24 -14 -2 -34 -7 -44 -11 -17 -7 -18 -5 -13 17 5 19 2 28 -9 32 -23 9 -26 8
-18 -6 20 -32 11 -48 -25 -48 -34 1 -35 2 -17 15 19 15 19 15 -4 37 -14 13
-26 22 -27 21 -11 -10 -11 0 -1 11 15 16 42 1 31 -18 -3 -6 0 -5 8 2 12 11 11
15 -3 23 -10 6 -18 17 -18 25 0 16 -23 44 -36 44 -3 0 -1 -7 6 -15 7 -8 10
-25 6 -40 -5 -21 -11 -24 -31 -19 -30 7 -32 -5 -5 -37 14 -18 19 -20 20 -9 0
9 -6 22 -12 29 -11 11 -9 12 8 3 18 -10 34 -32 34 -48 0 -2 -7 -4 -16 -4 -11
0 -14 -5 -10 -16 5 -13 1 -15 -19 -12 -13 3 -26 1 -27 -3 -2 -5 -59 -5 -128 0
-142 10 -685 2 -655 -10 11 -4 65 -9 120 -10 l100 -3 -100 -5 -100 -6 110 -9
c61 -5 130 -11 155 -13 81 -7 188 -8 184 -1 -4 6 77 2 146 -8 19 -3 121 -7
225 -10 257 -6 376 -11 382 -18 11 -11 -6 -33 -39 -49 -20 -9 -64 -16 -113
-17 -44 -1 -89 -8 -100 -15 -11 -6 -46 -12 -77 -13 -39 0 -63 -6 -74 -16 -13
-13 -80 -23 -116 -17 -5 0 -8 -3 -8 -9 0 -5 20 -10 45 -10 52 0 60 -14 14 -24
-22 -4 -29 -10 -26 -20 6 -16 -3 -20 -65 -31 -21 -3 -38 -10 -38 -15 0 -6 5
-10 10 -10 6 0 5 -8 -2 -20 -20 -31 -33 -24 -33 19 -1 30 -11 52 -45 97 -24
32 -44 67 -45 78 0 30 -48 60 -82 51 l-28 -8 29 -6 c16 -3 31 -11 33 -18 3 -7
-4 -10 -19 -6 -17 4 -20 2 -9 -5 12 -8 12 -13 2 -25 -10 -13 -8 -16 8 -22 12
-3 25 -3 31 0 5 3 10 4 10 1 0 -2 -22 -18 -50 -35 -46 -28 -65 -30 -39 -4 8 8
8 13 0 18 -11 6 -74 -39 -66 -47 2 -2 -9 -9 -26 -15 -27 -10 -30 -10 -25 4 5
11 2 14 -10 9 -8 -3 -23 -6 -31 -6 -13 0 -13 -3 -3 -15 10 -12 10 -15 -1 -16
-8 0 0 -7 16 -14 17 -8 48 -13 70 -11 22 2 32 1 22 -1 -10 -2 -16 -10 -15 -16
1 -7 -4 -23 -11 -36 -7 -12 -11 -31 -8 -40 3 -14 -1 -17 -19 -13 -12 2 -21 9
-18 16 2 6 -14 19 -36 29 -23 9 -46 28 -52 42 -12 28 -28 33 -28 10 0 -10 -14
-17 -41 -21 l-40 -7 6 -48 7 -47 -56 -7 c-31 -4 -56 -12 -56 -17 0 -5 -8 -7
-17 -4 -10 3 -29 -1 -43 -9 -24 -13 -24 -14 -5 -21 122 -45 115 -52 -15 -16
-98 28 -328 62 -306 46 21 -15 20 -21 -1 -27 -17 -4 -17 -5 0 -6 10 0 29 -8
43 -17 13 -9 27 -15 29 -12 3 3 -6 11 -20 18 -31 17 -33 35 -2 25 12 -4 49
-14 82 -23 49 -13 56 -17 35 -22 -23 -5 -21 -8 28 -40 29 -18 50 -35 48 -37
-2 -2 -32 12 -66 31 -43 23 -68 32 -79 26 -9 -4 -36 -16 -61 -25 -25 -9 -57
-23 -72 -31 -36 -19 -47 -17 -22 4 l21 18 -23 11 c-13 6 -24 7 -24 3 0 -5 6
-11 13 -14 6 -4 -16 -4 -50 -1 -34 2 -77 11 -95 20 -25 11 -27 13 -8 9 21 -4
22 -3 7 6 -23 15 -42 3 -26 -16 9 -11 8 -14 -7 -15 -18 0 -18 -1 1 -9 28 -12
37 -12 29 1 -10 18 47 1 70 -19 17 -16 11 -17 -110 -25 -71 -4 -167 -9 -214
-11 -47 -2 -103 -4 -125 -6 -39 -2 -39 -3 15 -11 30 -5 66 -6 80 -3 14 3 56 5
94 5 42 -1 75 4 84 12 9 6 13 7 10 2 -5 -8 29 -12 102 -13 72 -1 112 2 116 10
5 8 0 9 -17 5 -22 -5 -22 -5 -6 7 13 10 14 15 5 18 -7 3 -3 7 10 10 15 4 22 2
22 -8 0 -8 7 -14 15 -14 8 0 15 -5 15 -10 0 -6 10 -14 22 -19 17 -6 3 -10 -57
-15 -44 -4 -118 -13 -165 -21 -97 -17 -284 -20 -260 -5 11 7 5 10 -24 10 -22
0 -36 -3 -33 -7 19 -19 -62 -63 -117 -63 -18 0 -37 -5 -44 -12 -13 -13 -244
-25 -286 -14 -25 6 -27 16 -11 67 6 18 3 20 -27 15 -40 -6 -212 -26 -253 -29
-18 -1 -29 -7 -27 -14 1 -10 -25 -13 -110 -12 -112 2 -112 2 -43 10 39 4 115
16 170 27 l100 18 -105 8 c-58 4 -150 7 -205 7 -55 0 -116 4 -135 9 -24 5 14
8 120 9 186 1 461 21 434 32 -17 7 -17 8 -1 8 9 1 17 5 17 10 0 4 -12 6 -27 4
-26 -4 -27 -3 -10 10 10 8 16 21 15 28 -2 10 9 14 45 13 45 0 59 8 37 21 -21
13 -30 43 -15 48 10 4 12 1 9 -11 -3 -9 1 -6 9 7 8 13 12 32 10 41 -3 11 3 19
16 23 22 5 25 24 11 67 -7 23 -8 23 -9 -9 l-1 -34 -35 37 c-19 21 -35 33 -35
27 0 -21 -21 -11 -30 14 -5 14 -14 25 -20 25 -5 0 -10 24 -11 53 -1 88 -12
134 -42 167 -15 17 -32 42 -37 55 -6 16 -15 23 -25 19 -20 -8 -20 -54 0 -54 9
0 15 -9 15 -21 0 -12 8 -23 20 -26 35 -9 22 -26 -14 -19 -30 6 -34 4 -29 -13
2 -10 0 -22 -6 -25 -7 -5 -11 2 -11 16 0 17 -9 27 -32 37 -25 10 -29 15 -15
18 9 2 17 11 17 19 0 15 -16 19 -22 5 -1 -4 -14 -11 -28 -15 -14 -3 -19 -3
-12 0 6 3 12 12 12 19 0 7 9 15 20 18 25 6 27 55 6 119 -18 54 -24 196 -8 224
6 11 9 29 6 40 -3 11 -1 30 4 44 8 23 11 19 23 -34 8 -39 18 -60 30 -63 12 -3
19 -20 23 -56 9 -66 27 -127 38 -127 10 0 10 3 -7 75 -17 68 -20 232 -5 255 9
13 10 13 11 0 10 -153 45 -388 61 -405 4 -5 8 63 8 150 0 97 4 154 9 145 17
-28 60 -175 71 -240 14 -81 19 -100 29 -100 5 0 5 19 0 43 -4 23 -8 59 -9 80
0 35 2 37 20 27 18 -10 20 -20 18 -103 -2 -82 0 -92 16 -91 9 1 28 -9 41 -22
30 -30 61 -31 76 -3 13 24 8 137 -11 241 -6 37 -10 78 -8 90 l4 23 11 -25 c28
-66 36 -138 41 -359 5 -277 20 -288 24 -18 2 102 6 189 11 193 21 21 31 -24
35 -171 3 -85 8 -157 12 -160 15 -9 32 107 25 178 -4 47 -2 77 5 87 9 11 13
12 17 3 2 -7 17 -13 31 -13 l27 1 -30 16 -30 17 24 6 c14 3 41 4 60 1 33 -4
34 -5 11 -11 l-25 -7 30 -7 c17 -4 48 -12 70 -17 95 -25 199 -39 206 -27 4 6
12 7 20 3 9 -6 11 -3 6 8 -5 14 2 17 46 19 29 1 66 2 83 3 18 0 39 6 47 13 11
9 61 12 178 11 90 0 180 4 199 10 28 8 20 9 -42 4 -63 -4 -78 -3 -78 9 0 10
-26 17 -91 26 -50 7 -95 10 -100 7 -5 -4 -9 -2 -9 3 0 9 -28 15 -117 29 -24 3
-33 1 -33 -9 0 -11 -31 -14 -152 -16 -85 -2 -168 -8 -186 -15 -27 -9 -35 -9
-43 3 -8 13 -11 13 -20 -3 -12 -21 -38 -22 -45 -2 -4 8 -10 15 -15 15 -4 0 -6
-7 -3 -15 4 -10 2 -13 -8 -10 -8 3 -15 18 -16 33 -2 23 -6 68 -11 102 -2 22
-21 9 -21 -15 0 -37 -15 -30 -28 14 -17 55 -16 92 3 85 11 -5 15 1 15 25 0 18
5 31 13 31 9 0 9 2 0 8 -8 5 10 14 46 25 32 9 68 28 81 42 13 14 29 25 36 25
7 0 29 14 49 31 31 27 35 37 35 79 0 40 -4 51 -30 72 -29 24 -31 30 -28 84 1
33 -1 76 -6 97 -8 35 -6 40 26 70 44 41 58 67 58 107 0 20 4 29 11 24 6 -3 9
-22 7 -40 -2 -19 -1 -34 2 -34 14 0 38 37 55 83 10 26 22 50 26 53 5 3 14 14
20 25 10 20 10 20 -14 4 -14 -9 -28 -12 -30 -8 -10 16 10 35 38 39 42 4 60 28
59 76 -1 35 -7 47 -34 70 -27 22 -37 25 -53 17 -13 -8 -22 -8 -30 0 -6 6 -16
11 -21 11 -6 0 -5 -4 3 -9 12 -8 13 -14 3 -35 -15 -34 -27 -33 -46 6 -20 39
-20 38 4 38 28 0 25 25 -5 38 -14 6 -25 15 -24 19 4 24 -2 43 -12 38 -6 -4 -8
-10 -5 -13 3 -3 1 -11 -5 -19 -9 -9 -8 -13 0 -13 6 0 11 -5 11 -10 0 -7 -7 -7
-21 0 -12 7 -18 18 -15 26 3 8 -5 24 -19 36 -14 12 -25 28 -25 35 0 7 -4 13
-8 13 -5 0 -15 15 -24 33 -16 33 -15 35 7 60 12 15 27 27 32 27 17 0 23 43 9
60 -7 8 -12 20 -9 26 2 6 -8 26 -22 45 -14 19 -28 41 -31 49 -6 17 -53 54 -60
47 -3 -2 2 -23 10 -47 13 -38 13 -43 -4 -60 -18 -18 -19 -18 -29 11 -14 42 2
203 26 254 10 22 33 62 51 89 18 28 32 61 32 75 -1 35 -36 110 -67 144 -43 44
-46 31 -7 -28 23 -34 38 -71 41 -97 5 -39 0 -51 -41 -111 -68 -100 -88 -157
-88 -262 0 -25 -3 -43 -7 -41 -4 3 -25 33 -47 68 -33 53 -39 72 -39 118 -1 55
-25 119 -76 197 -18 29 -19 39 -11 90 5 32 13 66 17 76 6 15 0 17 -63 17 -68
0 -71 -1 -85 -30 -15 -28 -14 -31 11 -51 l27 -21 -30 17 c-16 10 -34 23 -40
29 -15 17 -118 47 -128 37 -5 -5 9 -23 31 -40 56 -46 82 -97 82 -164 0 -74 27
-206 49 -237 18 -26 34 -59 35 -74 1 -9 45 -36 79 -49 15 -6 17 -3 12 13 -10
30 1 24 23 -14 17 -29 18 -35 6 -40 -9 -3 -33 3 -54 14 -46 23 -57 25 -41 7 6
-8 8 -17 4 -20 -3 -4 17 -31 44 -60 29 -30 54 -67 58 -85 8 -38 35 -43 35 -7
0 14 3 25 6 25 16 0 44 -23 44 -36 0 -9 6 -14 13 -11 17 6 10 85 -10 116 l-16
24 32 -22 c26 -19 31 -29 31 -65 0 -42 -32 -100 -65 -119 -9 -4 -13 -13 -9
-18 8 -13 -16 -70 -26 -64 -5 3 -16 -4 -24 -16 l-15 -22 -20 24 c-11 13 -20
30 -21 37 0 6 -4 12 -9 12 -4 0 -21 12 -36 26 -21 19 -30 23 -36 13 -7 -13
-11 -10 -59 51 -3 3 -21 17 -40 30 -19 14 -45 35 -58 47 -29 29 -36 29 -21 2
16 -31 -2 -21 -56 30 -48 45 -69 49 -42 7 20 -29 81 -79 164 -132 34 -21 62
-42 63 -46 0 -12 -162 93 -202 130 -20 19 -42 47 -48 61 -8 18 -33 36 -83 60
-65 31 -117 71 -215 163 -38 37 -122 73 -212 93 -79 18 -83 18 -74 3 4 -7 3
-8 -5 -4 -6 4 -9 11 -6 16 3 5 -5 16 -17 24 -30 22 -15 20 30 -3 20 -10 59
-22 85 -25 60 -9 155 -44 191 -71 14 -11 29 -19 32 -17 4 2 12 -7 18 -19 6
-12 17 -24 24 -27 19 -6 14 32 -8 61 -16 20 -18 31 -10 51 10 29 25 34 33 12
3 -7 37 -26 75 -40 45 -18 76 -36 90 -56 38 -50 21 -56 -29 -10 -42 37 -88 55
-95 36 -17 -43 49 -149 101 -162 14 -3 22 -11 18 -17 -3 -6 -1 -7 5 -3 6 4 21
2 33 -5 20 -10 21 -9 15 17 -4 16 -13 32 -19 36 -6 4 -8 10 -4 14 4 4 0 16
-10 26 -27 30 -5 20 48 -22 28 -22 56 -40 62 -40 7 0 5 6 -4 13 -9 7 -28 32
-44 57 -15 25 -39 54 -52 65 l-25 21 28 14 c21 12 28 12 31 3 3 -7 10 -13 16
-13 6 0 21 -10 34 -22 13 -12 23 -16 23 -10 0 6 -31 35 -69 64 -79 60 -93 83
-27 44 l44 -26 -11 31 c-7 17 -36 48 -67 71 -30 23 -57 44 -60 47 -15 18 -70
50 -70 42 0 -5 10 -17 22 -25 16 -11 18 -16 7 -16 -8 0 -24 7 -35 15 -21 16
-38 20 -30 6 3 -5 -4 -12 -17 -15 -48 -13 -53 -23 -27 -50 13 -15 18 -26 12
-26 -6 0 -14 5 -17 10 -9 15 -25 12 -25 -5 0 -8 -7 -15 -15 -15 -9 0 -20 -10
-25 -22 -7 -18 -9 -19 -9 -5 -1 20 -12 22 -29 5 -6 -6 -15 -8 -19 -4 -4 4 -1
12 7 17 11 8 9 9 -8 4 -17 -5 -28 -1 -37 12 -8 10 -15 13 -15 6 0 -22 -55 -24
-117 -4 -84 27 -134 36 -142 25 -3 -5 -19 -15 -35 -22 -25 -11 -31 -10 -48 4
-14 14 -21 15 -30 6 -21 -21 -28 -13 -28 36 1 91 14 123 79 184 34 32 61 60
61 63 0 3 -12 5 -28 5 -64 0 -272 -159 -272 -208 0 -45 -28 -20 -64 58 -21 44
-40 98 -43 120 l-6 40 -73 0 -74 0 0 -39 c0 -75 30 -174 71 -238 23 -34 47
-67 55 -74 20 -17 17 -27 -8 -31 -13 -2 -22 -8 -21 -14 1 -8 -59 -12 -190 -13
-235 -2 -352 -21 -211 -34 38 -4 78 -14 93 -24 26 -18 24 -18 -123 -25 -152
-7 -203 -20 -125 -32 23 -4 39 -9 36 -12 -3 -3 -66 8 -139 25 -151 35 -274 55
-433 71 -488 49 -746 125 -917 269 -68 57 -98 94 -114 139 -10 28 -13 32 -14
14 0 -37 25 -75 86 -131 203 -186 416 -249 1099 -327 75 -8 218 -35 233 -43 8
-5 -10 -13 -45 -21 -72 -17 -45 -25 33 -11 73 14 112 13 148 -2 28 -12 28 -13
-55 -44 -66 -25 -106 -33 -189 -38 -143 -9 -233 -27 -323 -66 -42 -18 -75 -34
-74 -35 1 -1 43 7 92 17 94 19 201 25 223 11 21 -14 -24 -86 -65 -106 -18 -9
-89 -27 -157 -41 -200 -39 -357 -101 -395 -153 -16 -23 -46 -40 -125 -71 -57
-23 -128 -46 -157 -52 -78 -16 -95 -30 -29 -23 76 8 258 60 360 102 60 24 104
36 150 38 36 2 91 5 122 6 31 2 63 9 69 16 18 17 34 15 19 -3 -6 -8 -9 -19 -5
-24 3 -6 -16 -32 -42 -58 -35 -35 -68 -56 -121 -76 -86 -32 -147 -69 -164 -98
-21 -34 -122 -88 -240 -129 -62 -21 -108 -39 -103 -39 17 -1 206 40 233 50 13
5 43 9 67 9 24 0 47 5 51 11 3 6 16 8 27 5 12 -3 29 1 38 10 19 17 109 29 109
14 0 -6 5 -10 11 -10 20 0 38 -34 39 -72 0 -33 -4 -39 -42 -60 -32 -17 -49
-36 -69 -76 -34 -70 -91 -137 -137 -162 -55 -29 -30 -24 49 10 97 41 129 65
129 98 l0 27 19 -24 c10 -13 23 -21 29 -17 6 3 37 8 69 10 l58 5 33 -44 c17
-24 32 -50 32 -56 0 -7 -17 -28 -39 -48 -40 -37 -41 -41 -56 -168 -5 -38 -16
-65 -41 -98 -66 -86 17 -44 121 61 60 60 73 69 114 74 29 3 45 10 44 18 -5 23
13 12 65 -41 61 -62 63 -72 26 -179 -26 -75 -27 -77 -10 -127 20 -62 20 -101
1 -148 -38 -90 33 -33 103 83 61 100 77 116 110 109 13 -3 30 -1 38 6 11 9 23
4 59 -25 49 -40 52 -48 30 -86 -8 -14 -14 -42 -15 -62 0 -38 -22 -86 -67 -145
-21 -28 -23 -33 -9 -33 10 0 32 11 50 25 18 14 43 25 54 25 12 0 22 5 22 10 0
6 10 20 22 32 l21 21 -6 -22 c-6 -23 -6 -23 78 -6 36 7 44 2 78 -50 35 -52 34
-65 -5 -65 -61 0 -202 -40 -290 -82 -49 -23 -88 -45 -88 -50 0 -13 18 -9 63
13 30 16 65 23 126 26 46 2 90 8 96 13 15 12 40 -13 30 -30 -3 -5 2 -13 12
-16 56 -18 71 -27 67 -39 -3 -7 -18 -11 -37 -9 -18 1 -38 3 -44 3 -7 1 -13 6
-13 12 0 8 12 9 33 6 l32 -6 -29 15 c-22 12 -30 13 -36 4 -5 -9 -13 -9 -27 -2
-13 7 -24 7 -34 0 -12 -8 -12 -9 2 -5 8 3 26 -4 40 -14 13 -10 31 -19 39 -19
13 0 13 -1 0 -10 -13 -8 -13 -10 2 -10 9 0 20 5 23 10 3 6 11 10 18 10 7 0 5
-6 -5 -16 -17 -17 -78 -11 -78 7 0 6 -4 8 -9 5 -4 -3 -21 -2 -38 3 -31 9 -292
-4 -353 -18 -19 -4 -48 -4 -64 0 -35 10 -66 -8 -44 -24 9 -6 8 -7 -5 -3 -10 3
-24 6 -30 6 -6 0 -2 7 9 15 18 14 18 15 -6 6 -18 -6 -38 -4 -65 6 -22 8 -55
19 -74 25 -26 7 -31 12 -20 19 17 11 32 12 25 1 -2 -4 15 -15 38 -23 35 -13
43 -13 43 -2 0 8 -7 11 -15 8 -9 -3 -12 0 -9 8 4 10 -2 13 -21 10 -20 -4 -23
-2 -13 5 11 8 5 11 -24 14 -31 2 -41 8 -43 23 -3 11 -9 26 -16 34 -6 8 -10 22
-8 31 2 13 -5 17 -35 18 -32 1 -135 30 -109 32 5 0 1 9 -8 19 -17 18 -17 19 2
25 10 4 27 3 37 0 13 -5 16 -4 11 4 -4 7 -20 12 -37 12 -16 0 -29 5 -29 10 0
6 -7 10 -15 10 -9 0 -19 8 -22 17 -4 10 -13 24 -21 32 -12 12 -15 12 -23 0 -5
-8 -9 -9 -9 -2 0 6 12 20 27 31 l27 20 -54 6 c-30 3 -62 5 -70 5 -8 -1 -35 -1
-60 1 -42 2 -43 3 -15 10 17 4 53 8 81 9 36 1 54 6 58 16 4 12 24 15 88 15 46
0 90 5 98 10 8 5 13 10 10 11 -3 0 -12 2 -20 5 -77 20 -140 26 -371 30 l-266
4 16 -47 c16 -48 59 -103 79 -103 13 0 79 -36 117 -65 14 -11 48 -48 75 -82
37 -46 45 -62 34 -65 -10 -2 -1 -12 26 -28 56 -34 100 -70 100 -82 0 -5 -16 0
-36 11 -20 12 -39 19 -42 16 -3 -3 0 -5 8 -5 9 0 10 -3 1 -14 -9 -11 -8 -15 6
-21 10 -5 25 -7 35 -6 23 3 31 -15 18 -39 -7 -13 -21 -20 -40 -20 -30 0 -41
-15 -18 -22 26 -9 -37 -31 -96 -33 -34 -1 -48 0 -31 4 19 3 -4 8 -65 11 l-95
5 89 15 88 15 1 72 c0 81 -11 114 -64 194 -21 31 -36 59 -33 62 3 3 -8 14 -25
26 l-30 21 3 -23 c1 -12 6 -29 11 -37 6 -10 4 -12 -8 -7 -10 3 -17 2 -17 -4 0
-5 11 -14 24 -19 25 -9 42 -28 33 -36 -7 -7 -70 29 -85 49 -7 9 -24 17 -36 17
-28 0 -36 17 -36 70 0 106 -55 220 -146 299 -49 44 -58 38 -25 -16 29 -48 47
-103 34 -103 -3 0 -14 6 -22 14 -17 14 -147 72 -203 90 -11 3 -18 15 -18 31 0
15 4 24 8 21 5 -3 25 4 45 14 41 22 77 26 77 9 0 -8 5 -8 15 1 10 8 20 9 28 3
24 -18 67 -33 67 -23 0 6 -7 10 -15 10 -8 0 -15 5 -15 10 0 19 20 10 60 -29
l40 -39 0 27 c0 41 -46 99 -97 124 -47 23 -57 40 -26 45 10 2 35 11 56 20 31
14 37 21 32 40 -5 21 -2 23 22 22 40 -3 73 10 73 27 0 9 6 13 14 10 8 -3 24 3
37 14 12 10 27 19 33 19 19 -1 100 -25 114 -34 22 -13 29 4 8 20 -17 12 -17
14 -4 14 17 0 48 -26 48 -40 0 -12 54 -20 65 -9 5 6 5 13 -3 21 -7 7 -12 20
-12 29 0 10 -11 30 -23 46 -13 15 -36 49 -50 74 -28 48 -47 59 -154 96 -35 12
-48 20 -40 26 8 6 7 7 -4 4 -19 -6 -108 16 -137 34 -17 11 -28 11 -54 1 -18
-6 -55 -11 -83 -10 -37 1 -60 -4 -89 -22 l-38 -23 6 -54 c5 -41 3 -55 -8 -59
-8 -3 -17 -21 -20 -40 l-7 -34 -92 0 c-77 1 -100 5 -142 25 -44 22 -47 26 -27
31 25 7 30 24 7 24 -9 0 -12 6 -9 15 4 8 1 21 -5 29 -13 15 -54 29 -46 16 8
-13 -6 -40 -20 -40 -7 0 -15 7 -19 15 -3 8 -16 15 -28 15 -21 1 -21 2 -5 11 9
6 15 14 12 20 -4 5 1 9 9 9 9 0 16 -4 16 -9 0 -5 10 -8 23 -8 12 1 32 -2 44
-7 19 -6 22 -4 17 11 -4 11 -3 14 3 7 4 -6 15 -12 23 -12 8 -1 30 -5 48 -8 26
-5 32 -3 32 11 0 10 -8 24 -18 31 -15 12 -14 12 8 7 23 -6 24 -5 11 11 -10 11
-22 15 -38 11 -13 -3 -23 -1 -23 5 0 6 -12 22 -26 35 -15 14 -24 31 -21 39 3
8 1 17 -6 20 -7 2 -4 5 6 5 18 1 25 21 7 21 -5 0 -10 6 -10 14 0 8 -6 16 -14
19 -16 6 -31 86 -18 99 5 5 25 1 48 -11 29 -15 62 -21 126 -23 105 -3 123 7
84 49 -15 15 -38 48 -53 73 -56 96 -124 187 -168 223 -40 33 -67 45 -196 80
-112 31 -149 45 -149 56 0 19 -82 153 -122 199 -14 17 -41 38 -60 46 -46 20
-229 43 -450 57 -182 10 -190 10 -254 -11 -58 -20 -81 -22 -183 -18 -101 5
-133 11 -246 47 -194 62 -287 100 -315 130 -34 35 -65 53 -125 75 -27 10 -66
33 -85 51 -42 38 -109 84 -167 114 -24 12 -43 27 -43 35 0 7 -9 25 -21 40
l-20 26 -508 0 -508 0 -44 -47 c-24 -27 -53 -68 -64 -93 -11 -25 -24 -48 -30
-52 -14 -11 -27 -10 -20 1 3 6 -10 8 -33 5 -52 -6 -64 10 -71 94 -6 62 -8 67
-28 64 -16 -2 -23 2 -23 12 0 14 -16 16 -105 16 l-105 0 0 -1800z m7302 1178
c10 -10 28 -18 41 -18 53 0 103 -24 145 -68 33 -34 43 -51 39 -69 -3 -15 2
-27 12 -34 13 -9 13 -9 -4 -3 -96 34 -140 54 -138 63 2 5 -24 20 -57 32 -33
12 -59 24 -56 26 6 6 126 -26 156 -42 14 -7 36 -23 49 -34 13 -12 26 -19 29
-17 12 13 -121 112 -164 122 -33 8 -124 52 -124 60 0 12 56 -2 72 -18z m864
-253 c17 -17 39 -21 29 -5 -3 6 1 10 9 10 19 0 30 -17 16 -25 -12 -7 18 -55
63 -98 16 -16 26 -31 23 -35 -4 -3 -12 0 -18 6 -17 17 -27 15 -26 -5 0 -10 -5
-33 -10 -50 -6 -20 -7 -33 -1 -33 5 0 9 -6 9 -13 0 -7 9 -23 20 -35 17 -18 18
-22 5 -22 -9 0 -13 -5 -10 -10 9 -14 -24 -25 -37 -12 -8 8 -7 16 2 27 10 12
10 19 3 23 -6 4 -16 26 -22 49 -6 23 -16 43 -23 45 -10 4 -14 21 -17 66 -1 7
-5 11 -10 8 -21 -13 -39 29 -34 77 6 52 8 54 29 32z m-461 -51 c30 -15 57 -35
60 -46 4 -11 16 -18 33 -19 15 0 21 -3 15 -6 -22 -8 -14 -23 13 -23 14 0 23
-4 19 -10 -4 -6 7 -10 26 -10 18 0 29 -3 26 -7 -4 -3 9 -17 28 -30 19 -13 35
-28 35 -32 0 -5 10 -12 23 -16 13 -4 17 -8 9 -12 -9 -3 -6 -13 9 -35 19 -26
20 -31 7 -45 -14 -13 -21 -9 -68 36 -29 28 -58 51 -64 50 -22 -3 -36 1 -36 10
0 5 10 7 22 3 14 -3 19 -2 14 6 -4 7 -13 12 -21 12 -21 0 -48 42 -33 51 8 5 2
10 -15 14 -15 4 -24 11 -21 16 3 5 -2 9 -10 9 -9 0 -16 7 -16 15 0 8 -5 15
-11 15 -5 0 -8 -4 -5 -9 4 -5 -3 -7 -14 -4 -11 3 -27 0 -35 -7 -10 -8 -15 -9
-15 -2 0 7 15 15 33 20 28 8 29 10 12 17 -11 4 -34 13 -52 21 -17 8 -34 14
-37 14 -4 0 -17 10 -29 21 l-22 22 33 -6 c18 -4 57 -19 87 -33z m-4455 -23 c0
-11 4 -22 10 -26 5 -3 7 -12 4 -19 -8 -21 23 -39 79 -43 89 -6 105 -9 122 -23
16 -13 15 -15 -10 -22 -16 -4 -36 -3 -46 2 -10 6 -28 11 -41 11 -19 1 -18 3 7
9 17 4 -37 6 -120 4 -122 -2 -160 -6 -205 -23 -30 -11 -65 -20 -78 -21 -13 0
-32 -5 -43 -11 -26 -13 -126 -30 -143 -23 -12 5 -11 31 2 87 1 4 2 16 2 27 0
13 7 20 20 20 22 0 26 10 9 27 -8 8 -8 13 0 17 6 4 11 0 11 -9 0 -11 5 -15 15
-12 8 4 17 2 20 -3 4 -6 15 -10 26 -10 11 0 22 -7 25 -15 4 -8 15 -15 25 -15
10 0 19 -4 19 -9 0 -5 12 -11 27 -14 35 -6 94 3 87 14 -2 4 -11 6 -19 2 -10
-3 -15 2 -15 16 0 12 6 21 13 20 25 -3 76 14 81 27 7 19 42 33 84 33 25 1 32
-3 32 -18z m3501 -392 c33 -12 59 -26 59 -30 0 -18 3 -24 19 -37 14 -12 14
-13 -4 -8 -58 13 -99 17 -90 8 13 -13 154 -52 188 -52 14 0 60 -7 100 -16 63
-14 75 -20 84 -43 l11 -26 1 28 c1 22 6 27 25 27 17 0 27 -8 34 -27 9 -25 10
-26 11 -5 1 25 12 26 81 11 25 -5 52 -11 61 -13 42 -6 105 -109 115 -185 11
-88 22 -106 24 -36 2 65 7 60 24 -24 11 -54 36 -83 36 -41 0 12 4 19 9 16 4
-3 11 -38 13 -77 3 -39 11 -74 17 -78 17 -11 31 -69 31 -126 0 -27 2 -66 6
-85 4 -25 3 -31 -5 -20 -5 8 -8 17 -5 21 5 9 -41 39 -61 39 -8 0 -14 6 -12 12
1 7 -18 23 -43 35 -24 13 -40 23 -35 23 6 0 -10 15 -35 33 -25 17 -55 41 -66
53 -27 27 -110 84 -122 84 -5 0 -29 18 -53 40 -25 23 -96 66 -166 100 -68 33
-123 65 -123 72 0 7 -34 36 -75 63 -51 34 -78 58 -82 75 -3 14 -19 40 -35 58
-31 36 -38 96 -16 132 15 24 9 24 79 -1z m-4456 -258 l0 -73 -48 -18 c-27 -11
-55 -27 -63 -37 -15 -21 -18 -55 -5 -68 15 -16 32 -81 35 -133 2 -27 9 -59 15
-71 9 -16 9 -21 -1 -22 -7 0 -4 -4 7 -9 16 -6 13 -9 -20 -14 -22 -3 -83 -14
-135 -24 -52 -9 -104 -17 -115 -18 -48 -3 -51 -4 -31 -15 17 -10 57 -9 221 6
35 4 44 2 30 -4 -11 -5 -33 -10 -50 -11 -28 -2 -28 -3 9 -11 49 -12 53 -15 26
-22 -12 -3 -18 -1 -13 5 4 8 -7 9 -35 4 -34 -5 -40 -4 -36 9 5 11 -1 15 -22
14 l-29 -1 25 -8 c25 -8 25 -8 -5 -10 -25 -2 -22 -4 18 -12 47 -10 67 -38 27
-38 -11 0 -20 -4 -20 -10 0 -5 -18 -10 -40 -10 -22 0 -40 4 -40 10 0 10 -84
50 -107 50 -8 0 -24 5 -36 12 -12 6 -33 12 -47 12 -16 1 -26 8 -28 19 -3 15 2
18 20 16 12 -2 29 0 36 5 7 4 20 5 28 2 8 -3 13 -2 10 3 -3 5 1 12 10 15 9 4
14 9 11 13 -4 3 -12 1 -20 -5 -17 -15 -113 0 -109 16 3 18 -39 15 -60 -5 -10
-9 -18 -27 -18 -40 0 -22 -15 -32 -22 -15 -1 5 -18 5 -37 0 -24 -7 -31 -12
-22 -18 8 -4 9 -10 3 -14 -15 -9 -22 20 -9 33 7 7 8 11 2 10 -18 -4 -45 13
-45 27 0 8 -8 18 -17 21 -23 9 -33 23 -33 51 0 12 -5 22 -11 22 -5 0 -8 -4 -5
-9 15 -24 -7 -41 -53 -41 -32 0 -42 3 -31 10 13 8 11 12 -7 30 -19 17 -35 20
-102 20 -62 0 -79 3 -75 13 2 7 20 19 38 25 27 10 38 10 62 -3 30 -15 194 -22
194 -7 -1 4 -9 17 -18 28 -16 19 -31 22 -123 25 l-105 4 -32 -33 c-18 -18 -32
-37 -32 -41 0 -17 -43 -19 -74 -4 -31 14 -36 14 -94 -13 -58 -27 -78 -44 -49
-44 6 0 33 11 58 23 l47 23 49 -22 c48 -21 49 -22 45 -58 -4 -35 -6 -37 -30
-31 -14 3 -28 1 -32 -5 -8 -12 -80 0 -178 32 -62 20 -70 26 -52 44 17 17 -7
37 -52 44 -39 7 -36 8 29 9 49 1 73 -3 76 -11 4 -10 7 -10 18 0 7 6 28 12 46
12 29 0 32 2 30 29 -1 16 -5 27 -9 24 -5 -2 -8 0 -8 5 0 5 26 12 57 16 31 4
65 14 74 22 16 14 20 14 43 -1 21 -14 24 -21 15 -36 -13 -25 -8 -24 25 4 l27
24 -26 17 c-15 10 -24 20 -22 23 3 2 18 -3 34 -13 28 -18 28 -18 10 2 -9 11
-15 23 -12 26 3 3 0 29 -6 58 -8 38 -8 55 0 63 6 6 11 21 11 34 0 30 14 29 28
-2 11 -23 36 -31 80 -26 6 1 12 -3 12 -9 0 -5 9 -10 20 -10 11 0 20 4 20 9 0
11 89 45 114 43 10 0 20 7 23 19 6 23 19 25 27 4 7 -19 34 -19 78 -1 19 8 45
12 58 9 15 -4 26 -1 32 11 11 20 28 21 28 1 0 -17 16 -20 25 -5 3 6 13 10 21
10 11 0 14 -6 9 -22 -5 -17 -4 -19 3 -9 14 19 42 6 42 -19 0 -11 5 -20 11 -20
20 0 49 21 43 32 -4 7 -9 6 -14 -2 -6 -9 -9 -9 -15 0 -4 7 1 13 14 17 11 3 18
9 16 14 -3 4 42 7 100 5 84 -2 105 0 101 11 -3 7 -1 13 4 13 6 0 10 8 11 18 0
10 3 12 6 5 3 -9 11 -9 29 3 13 9 30 14 39 11 8 -4 17 -2 21 4 3 6 16 9 27 7
20 -3 22 -9 22 -77z m1735 -305 c70 -47 79 -55 173 -148 70 -69 99 -90 140
-104 53 -17 132 -58 155 -80 17 -17 15 -41 -5 -52 -17 -10 -63 9 -123 49 -14
9 -38 24 -53 33 -16 10 -27 20 -24 22 4 5 30 -8 137 -70 52 -30 60 -31 60 -11
0 10 -10 15 -27 16 -24 0 -25 2 -9 8 16 6 11 10 -27 19 -26 7 -47 16 -47 20 0
9 -59 32 -83 32 -9 0 -20 7 -25 16 -17 31 -188 198 -247 242 -90 66 -88 71 5
8z m2951 -66 c64 -45 83 -51 51 -17 l-21 22 30 2 c32 2 101 -35 129 -70 14
-16 21 -18 46 -10 28 9 49 53 25 53 -6 0 -11 5 -11 12 0 6 9 3 20 -7 11 -10
19 -24 18 -31 -2 -7 6 -20 17 -28 11 -8 17 -17 14 -21 -4 -3 -14 1 -23 10 -13
13 -22 15 -49 6 -17 -5 -54 -12 -82 -16 -46 -5 -55 -3 -103 30 -72 47 -96 47
-50 -2 25 -27 13 -31 -21 -7 -15 11 -21 23 -18 35 4 14 -4 26 -24 41 -16 12
-29 25 -29 30 0 17 26 7 81 -32z m-5662 -37 c-16 -2 -29 -12 -32 -24 -6 -22
-10 -21 113 -23 l95 -1 3 -43 3 -43 -43 2 c-24 1 -47 6 -53 10 -5 4 -46 14
-90 22 -113 22 -111 21 -107 67 l4 40 67 -1 c36 -1 54 -4 40 -6z m5911 -90
c14 -9 41 -30 62 -47 58 -50 124 -96 136 -96 5 0 22 14 36 31 27 32 40 32 49
-1 3 -11 1 -18 -4 -14 -5 3 -9 0 -9 -6 0 -6 -11 -15 -25 -20 -14 -5 -25 -15
-24 -22 0 -7 24 -53 53 -103 52 -89 53 -90 97 -95 32 -4 39 -7 26 -12 -10 -5
-30 -8 -44 -8 -16 0 -27 -7 -30 -20 -7 -25 -19 -26 -27 -3 -6 15 -9 14 -19 -7
-11 -21 -19 -25 -56 -23 -40 3 -42 1 -35 -20 6 -19 5 -20 -10 -8 -9 7 -16 22
-16 32 0 10 -4 20 -9 24 -12 7 -83 156 -78 162 3 2 20 -15 38 -39 60 -77 87
-100 109 -93 30 9 25 33 -18 84 -21 25 -47 58 -57 74 -17 26 -17 27 0 20 13
-4 16 -3 11 5 -4 7 -18 12 -32 12 -15 0 -23 4 -19 11 4 6 1 9 -6 8 -8 -1 -21
1 -29 5 -8 3 -35 10 -60 16 -39 8 -35 8 32 5 72 -4 76 -4 71 15 -3 11 -43 45
-89 76 -46 31 -84 60 -84 65 0 15 34 10 60 -8z m2122 -750 c29 -21 74 -53 98
-71 124 -91 175 -124 242 -158 107 -53 200 -106 195 -110 -5 -6 -71 18 -78 28
-7 11 -130 70 -136 65 -2 -3 12 -15 31 -27 20 -12 36 -26 36 -31 0 -5 15 -9
33 -10 17 0 26 -3 19 -6 -18 -7 -84 6 -78 15 3 4 -18 20 -45 35 -27 16 -49 33
-49 39 0 5 -7 7 -16 4 -8 -3 -28 1 -44 9 -43 22 -44 19 -2 -20 l37 -34 -34 -1
c-33 0 -30 -3 60 -61 52 -33 106 -74 122 -91 15 -17 27 -28 27 -24 0 4 5 4 11
0 8 -4 7 -9 -2 -16 -11 -7 -11 -11 -1 -15 18 -7 15 -22 -5 -21 -10 0 -27 -2
-38 -6 -15 -5 -14 -4 3 5 23 13 30 29 11 29 -6 0 -9 6 -7 12 9 27 -143 128
-215 143 -23 5 -27 10 -23 30 3 14 0 25 -5 25 -6 0 -52 25 -103 55 -50 30 -97
55 -103 55 -6 0 -16 7 -23 15 -11 13 -8 14 19 9 21 -4 31 -3 31 6 0 20 24 5
30 -19 3 -15 28 -35 79 -62 80 -43 117 -43 52 0 -23 15 -38 31 -34 34 3 4 1 7
-6 7 -6 0 -37 16 -67 35 -30 19 -56 35 -59 35 -9 0 -95 64 -90 68 2 2 19 -4
37 -14 89 -47 144 -71 151 -67 4 2 6 -1 5 -8 -3 -12 67 -59 88 -59 26 0 6 30
-43 66 -29 21 -53 42 -53 47 0 4 -29 26 -65 48 -36 23 -65 43 -65 45 0 11 23
0 72 -33z m1103 -333 c3 -5 11 -10 16 -10 6 0 8 4 5 9 -4 5 20 3 51 -4 46 -11
96 -12 246 -4 221 11 593 -8 782 -41 47 -8 46 -8 -20 -5 -38 2 -126 9 -195 15
-145 14 -130 14 -495 10 l-280 -3 90 -20 c79 -18 126 -20 385 -20 255 -1 308
-9 105 -17 l-60 -2 55 -10 c30 -5 136 -15 235 -22 l180 -14 -130 1 c-71 0
-159 3 -195 7 -209 26 -274 32 -360 35 -52 2 -111 8 -130 14 -19 6 -48 11 -64
11 -28 0 -79 13 -121 31 -11 5 -34 11 -51 12 -29 3 -91 37 -67 37 7 0 15 -4
18 -10z m-7860 -261 c37 0 45 -3 30 -9 -14 -6 -15 -9 -5 -10 61 -6 99 -12 126
-21 44 -14 252 -49 292 -49 20 0 31 4 27 10 -3 5 0 11 7 11 14 2 -15 8 -147
32 -48 9 -66 15 -45 15 19 1 58 -3 85 -8 28 -6 90 -14 139 -20 87 -10 114 -18
89 -27 -7 -3 -13 -8 -13 -12 0 -9 -5 -8 115 -17 164 -11 164 -22 0 -18 -88 2
-252 3 -365 3 -287 -1 -284 -1 -390 22 -202 45 -231 60 -45 24 90 -18 413 -31
380 -16 -11 5 -33 10 -50 10 -16 1 -55 8 -85 17 -30 9 -104 29 -165 45 -60 16
-92 27 -70 24 22 -3 63 -5 90 -6z m5690 -104 c42 -11 131 -18 302 -24 134 -4
245 -10 248 -12 16 -17 -671 17 -692 33 -13 11 -203 6 -221 -6 -7 -4 -12 -2
-12 3 0 6 -17 11 -37 11 -30 0 -35 3 -23 11 23 16 361 4 435 -16z"/>
<path d="M10343 1601 c-3 -11 -15 -22 -28 -25 -18 -5 -22 -12 -21 -35 1 -16 4
-33 8 -36 4 -4 4 -13 1 -21 -4 -10 3 -14 26 -14 24 0 31 -4 31 -20 0 -25 30
-27 37 -2 3 14 12 17 39 14 36 -4 44 7 19 28 -8 7 -12 16 -10 21 3 4 -5 15
-19 24 -14 10 -23 22 -19 31 3 9 -1 14 -12 14 -9 0 -19 9 -22 20 -7 25 -23 26
-30 1z"/>
<path d="M8059 1174 c-19 -23 -25 -82 -14 -140 4 -26 2 -32 -16 -37 -19 -5
-20 -10 -13 -74 4 -37 7 -78 6 -91 l-2 -23 22 21 c25 23 48 26 49 8 0 -7 4 -2
8 12 4 14 6 96 3 183 -5 161 -11 180 -43 141z"/>
</g>
</svg>
