<svg xmlns="http://www.w3.org/2000/svg" width="1920" height="254"><defs><linearGradient id="a" x1="93.181%" x2="4.916%" y1="96.491%" y2="5.65%"><stop offset="0%" stop-color="#331656"/><stop offset="79.541%" stop-color="#78488F"/><stop offset="79.541%" stop-color="#78488F"/><stop offset="100%" stop-color="#8A559E"/></linearGradient></defs><g fill="none" fill-rule="evenodd"><path fill="#F5F6FC" d="M1 76h321.835l475.97 85.718c210.158 33.887 320.065 51.247 329.72 52.079 9.656.831 114.73 5.542 315.222 14.13l254.621-14.13L1920 168.008V254H1V76z"/><path fill="url(#a)" d="M0 7.662c76.271-10.526 174.22-10.207 293.845.959 92.635 8.646 270.355 63.872 501.28 115.1 210.808 46.765 494.021 85.17 644.012 85.17 206.707 0 366.995-17.085 480.863-51.256v13.214c-128.312 40.452-300.62 61.09-480.863 64.57-232.376 4.487-464.706-16.768-751.875-72.334C220.778 72.823 62.096 111.374 0 130.748V7.662z"/></g></svg>